<?xml version="1.0" standalone="no"?>
<!DOCTYPE svg PUBLIC "-//W3C//DTD SVG 20010904//EN"
 "http://www.w3.org/TR/2001/REC-SVG-20010904/DTD/svg10.dtd">
<svg version="1.0" xmlns="http://www.w3.org/2000/svg"
 width="512.000000pt" height="512.000000pt" viewBox="0 0 512.000000 512.000000"
 preserveAspectRatio="xMidYMid meet">

<g transform="translate(0.000000,512.000000) scale(0.100000,-0.100000)"
fill="#000000" stroke="none">
<path d="M2465 4990 c-671 -75 -1241 -438 -1585 -1009 -194 -322 -290 -673
-292 -1061 -2 -348 67 -640 224 -954 33 -65 70 -129 83 -142 41 -41 102 -29
125 26 12 29 8 38 -64 183 -42 83 -94 206 -115 273 -208 635 -75 1328 350
1839 515 616 1352 850 2113 589 126 -44 316 -136 421 -206 l80 -53 -94 -5
c-87 -5 -95 -7 -118 -34 -30 -35 -26 -80 10 -110 21 -17 35 -18 232 -12 227 8
249 13 261 63 8 29 -87 380 -112 421 -32 50 -97 48 -130 -4 -17 -25 -17 -29 0
-91 9 -36 15 -67 13 -70 -3 -2 -37 17 -77 42 -224 144 -496 248 -775 296 -137
23 -422 33 -550 19z"/>
<path d="M2449 4463 c-49 -132 -83 -219 -89 -226 -4 -5 -54 -24 -110 -43 -57
-19 -144 -56 -195 -82 l-92 -47 -119 52 c-65 29 -124 53 -129 53 -6 0 -77 -67
-159 -149 l-148 -148 55 -125 55 -125 -52 -104 c-28 -57 -65 -147 -81 -200
l-30 -96 -127 -49 -128 -49 0 -215 0 -215 128 -49 128 -48 29 -94 c15 -52 52
-142 81 -200 l53 -106 -56 -125 -55 -126 50 -50 50 -49 56 21 c146 55 240 49
466 -31 268 -93 435 -145 573 -178 99 -23 150 -41 183 -63 52 -34 110 -107
120 -150 8 -37 12 -32 49 64 l31 81 101 32 c55 18 145 56 199 83 l99 50 119
-53 c66 -30 124 -54 130 -54 6 0 77 66 158 148 l147 147 -56 127 -55 126 55
114 c31 62 67 152 82 199 l27 87 126 49 127 49 3 214 2 215 -129 49 -129 48
-31 99 c-17 54 -54 144 -82 199 -58 115 -60 88 18 260 l42 95 -150 151 -151
152 -127 -57 -126 -57 -100 51 c-80 41 -192 83 -290 110 -5 1 -32 62 -60 134
l-50 131 -213 0 -212 0 -11 -27z m436 -532 c195 -40 362 -129 508 -270 161
-156 262 -341 308 -566 18 -88 15 -294 -6 -390 -53 -250 -195 -476 -394 -627
-89 -68 -267 -153 -376 -180 -126 -32 -391 -32 -507 0 -381 104 -665 392 -761
772 -31 123 -31 358 1 483 43 172 131 336 251 469 135 149 344 265 562 313 96
20 305 19 414 -4z"/>
<path d="M2549 3601 c-36 -36 -37 -73 -4 -106 l24 -25 -67 -53 c-37 -29 -147
-115 -244 -190 -142 -111 -178 -143 -183 -168 -12 -53 47 -109 96 -94 10 4
125 89 256 191 l237 185 24 -31 c19 -24 31 -30 61 -30 56 0 74 27 106 158 42
174 28 192 -161 192 -114 0 -116 0 -145 -29z"/>
<path d="M3078 3329 c-17 -9 -18 -41 -18 -437 0 -320 3 -431 12 -440 8 -8 51
-12 130 -12 106 0 118 2 128 19 6 13 10 166 10 428 0 354 -2 412 -16 431 -14
20 -23 22 -122 22 -59 0 -115 -5 -124 -11z"/>
<path d="M2540 3021 c-6 -12 -10 -120 -10 -281 0 -161 4 -269 10 -281 10 -17
22 -19 128 -19 79 0 122 4 130 12 17 17 17 559 0 576 -8 8 -51 12 -130 12
-106 0 -118 -2 -128 -19z"/>
<path d="M2026 2744 c-13 -12 -16 -41 -16 -148 0 -89 4 -136 12 -144 8 -8 51
-12 130 -12 106 0 118 2 128 19 5 11 10 76 10 144 0 159 2 157 -143 157 -83 0
-109 -3 -121 -16z"/>
<path d="M4355 3975 c-14 -13 -25 -33 -25 -44 0 -11 31 -85 69 -163 137 -282
201 -553 201 -849 0 -366 -109 -749 -293 -1034 l-45 -69 47 -27 c26 -15 53
-34 60 -43 7 -9 17 -16 21 -16 13 0 95 137 154 256 91 185 149 364 187 580 19
108 23 165 23 344 0 240 -17 370 -74 574 -55 196 -185 482 -230 506 -32 17
-70 11 -95 -15z"/>
<path d="M1635 1726 c-22 -7 -65 -25 -95 -41 -59 -30 -497 -282 -516 -297 -8
-6 42 -103 168 -326 99 -174 183 -320 187 -324 4 -4 20 -3 36 3 26 10 80 -2
410 -91 209 -56 454 -122 545 -146 230 -62 308 -60 442 7 44 22 1286 783 1425
873 85 54 85 205 0 260 -61 40 -177 26 -312 -38 -38 -18 -256 -141 -484 -274
-227 -133 -438 -251 -467 -262 -170 -63 -347 -44 -792 85 -167 49 -192 64
-192 117 0 37 40 78 75 78 15 0 88 -18 164 -40 394 -114 462 -118 511 -37 13
20 20 50 20 81 0 43 -4 53 -37 85 -34 34 -50 40 -158 65 -129 30 -286 79 -565
176 -155 53 -183 60 -250 59 -41 0 -93 -6 -115 -13z"/>
<path d="M512 1459 c-132 -77 -159 -105 -149 -163 3 -17 146 -280 318 -585
325 -574 337 -591 398 -591 24 0 150 64 248 126 66 42 82 86 54 148 -41 91
-614 1093 -637 1114 -46 41 -92 31 -232 -49z m167 -149 c10 -5 24 -22 30 -39
10 -24 10 -34 -3 -59 -24 -47 -66 -55 -110 -21 -68 53 7 160 83 119z"/>
</g>
</svg>
