<?xml version="1.0" standalone="no"?>
<!DOCTYPE svg PUBLIC "-//W3C//DTD SVG 20010904//EN"
 "http://www.w3.org/TR/2001/REC-SVG-20010904/DTD/svg10.dtd">
<svg version="1.0" xmlns="http://www.w3.org/2000/svg"
 width="96.000000pt" height="96.000000pt" viewBox="0 0 96.000000 96.000000"
 preserveAspectRatio="xMidYMid meet">

<g transform="translate(0.000000,96.000000) scale(0.100000,-0.100000)"
fill="#000000" stroke="none">
<path d="M263 868 l-213 -91 0 -322 c0 -317 0 -323 -21 -328 -18 -5 -20 -12
-17 -64 l3 -58 465 0 465 0 3 58 c3 52 1 59 -17 64 -21 5 -21 11 -21 328 l0
323 -213 91 c-118 50 -215 91 -218 91 -2 -1 -100 -42 -216 -92z m422 -16 l200
-87 0 -315 0 -315 -37 -3 -38 -3 0 300 0 301 -330 0 -330 0 0 -301 0 -300 -38
3 -37 3 0 315 0 315 200 87 c110 48 202 87 205 87 3 0 95 -39 205 -87z m105
-487 c0 -300 -2 -345 -15 -345 -13 0 -15 43 -15 330 l0 330 -280 0 -280 0 0
-330 c0 -287 -2 -330 -15 -330 -13 0 -15 45 -15 345 l0 345 310 0 310 0 0
-345z m-50 230 l0 -65 -260 0 -260 0 0 65 0 65 260 0 260 0 0 -65z m0 -110 l0
-25 -260 0 -260 0 0 25 0 25 260 0 260 0 0 -25z m0 -255 l0 -210 -30 0 -30 0
-2 188 -3 187 -184 3 c-127 2 -188 -1 -197 -9 -11 -9 -14 -50 -14 -190 l0
-179 -30 0 -30 0 0 210 0 210 260 0 260 0 0 -210z m-338 78 c3 -71 4 -73 28
-70 30 4 78 4 105 0 18 -3 20 3 23 70 l3 72 49 0 50 0 0 -180 0 -180 -180 0
c-150 0 -180 2 -180 14 0 10 13 16 38 18 l37 3 0 50 0 50 -37 3 -38 3 0 110 0
109 50 0 49 0 3 -72z m138 14 l0 -59 -60 0 -60 0 0 59 0 58 60 0 60 0 0 -58z
m-180 -217 c0 -32 -2 -35 -30 -35 -28 0 -30 3 -30 35 0 32 2 35 30 35 28 0 30
-3 30 -35z m-210 -40 l0 -45 -55 0 -55 0 0 45 0 45 55 0 55 0 0 -45z m770 0
l0 -45 -55 0 -55 0 0 45 0 45 55 0 55 0 0 -45z"/>
<path d="M425 480 c3 -5 28 -10 55 -10 27 0 52 5 55 10 4 6 -17 10 -55 10 -38
0 -59 -4 -55 -10z"/>
<path d="M575 150 c-4 -6 8 -10 30 -10 22 0 34 4 30 10 -3 6 -17 10 -30 10
-13 0 -27 -4 -30 -10z"/>
<path d="M575 100 c3 -5 17 -10 30 -10 13 0 27 5 30 10 4 6 -8 10 -30 10 -22
0 -34 -4 -30 -10z"/>
<path d="M575 60 c3 -5 17 -10 30 -10 13 0 27 5 30 10 4 6 -8 10 -30 10 -22 0
-34 -4 -30 -10z"/>
</g>
</svg>
