<?xml version="1.0" standalone="no"?>
<!DOCTYPE svg PUBLIC "-//W3C//DTD SVG 20010904//EN"
 "http://www.w3.org/TR/2001/REC-SVG-20010904/DTD/svg10.dtd">
<svg version="1.0" xmlns="http://www.w3.org/2000/svg"
 width="512.000000pt" height="512.000000pt" viewBox="0 0 512.000000 512.000000"
 preserveAspectRatio="xMidYMid meet">
<metadata>
Created by potrace 1.16, written by Peter Selinger 2001-2019
</metadata>
<g transform="translate(0.000000,512.000000) scale(0.100000,-0.100000)"
fill="#000000" stroke="none">
<path d="M1545 5013 c-209 -33 -405 -132 -551 -277 -309 -309 -366 -761 -153
-1215 117 -250 346 -487 554 -574 208 -87 427 -82 618 14 308 156 549 493 633
884 11 53 17 125 17 215 -1 113 -5 151 -27 235 -72 275 -257 501 -511 625
-143 70 -239 92 -410 96 -77 1 -153 0 -170 -3z m275 -217 c304 -55 553 -292
616 -586 23 -110 14 -286 -20 -405 -65 -220 -199 -431 -355 -557 -138 -111
-256 -154 -401 -146 -145 9 -272 72 -404 203 -131 129 -234 306 -293 500 -24
81 -27 106 -27 245 -1 145 1 160 27 235 127 361 489 577 857 511z"/>
<path d="M3521 2943 c-21 -22 -35 -59 -66 -176 -21 -82 -44 -151 -51 -154 -7
-3 -48 17 -91 43 -43 26 -102 62 -132 81 -40 24 -67 33 -98 33 -38 0 -49 -6
-106 -60 l-64 -59 -63 26 c-133 53 -145 54 -1201 50 -1083 -3 -1014 1 -1158
-72 -190 -95 -321 -255 -371 -451 -19 -74 -20 -115 -20 -1061 l0 -985 29 -29
29 -29 1532 0 1532 0 29 29 29 29 0 324 0 324 56 32 c87 50 86 51 118 -95 37
-172 43 -189 76 -213 26 -19 44 -20 248 -20 279 0 256 -14 312 200 22 85 45
157 52 161 6 4 60 -24 119 -62 144 -91 161 -99 205 -99 35 0 48 10 182 142 79
79 148 151 154 162 19 35 11 81 -25 137 -107 169 -134 217 -128 227 3 6 75 26
160 45 112 25 159 40 174 56 21 21 22 31 25 259 l3 238 -24 25 c-19 21 -54 34
-180 65 -86 21 -158 43 -161 50 -2 6 34 68 80 138 121 184 124 169 -68 363
-126 127 -159 154 -188 159 -31 5 -51 -5 -171 -80 -75 -47 -144 -86 -152 -86
-11 0 -20 22 -32 78 -48 221 -53 237 -80 259 -25 22 -32 23 -256 23 l-231 0
-27 -27z m389 -317 c18 -79 40 -146 51 -160 11 -14 39 -31 62 -37 23 -6 60
-20 81 -31 57 -29 95 -20 225 57 l114 67 69 -69 69 -69 -72 -114 c-79 -128
-85 -152 -51 -222 11 -25 24 -58 28 -72 12 -48 57 -82 126 -95 35 -7 93 -20
131 -28 l67 -15 0 -93 0 -93 -134 -32 c-77 -18 -146 -40 -160 -51 -13 -10 -32
-43 -42 -72 -9 -28 -23 -61 -30 -72 -30 -43 -18 -86 62 -210 l75 -118 -68 -69
-69 -69 -124 72 c-130 77 -167 86 -213 57 -12 -8 -46 -23 -74 -32 -29 -10 -61
-29 -72 -42 -11 -14 -34 -84 -52 -159 l-32 -135 -98 0 c-94 0 -99 1 -104 23
-53 219 -65 261 -81 277 -26 25 -169 80 -208 80 -23 0 -67 -21 -152 -75 l-119
-74 -69 68 -69 69 73 116 c82 132 83 142 37 251 -43 103 -62 117 -214 155
l-133 32 0 94 0 94 28 6 c119 27 230 57 252 69 20 10 36 37 64 105 48 114 46
129 -41 267 l-66 105 70 70 69 69 120 -70 c76 -45 130 -71 149 -71 44 0 176
57 206 90 20 20 33 54 49 121 11 52 26 111 31 132 l10 37 98 0 99 0 32 -134z
m-2937 -161 c64 -155 235 -332 395 -408 l69 -34 -148 -459 c-82 -252 -149
-474 -149 -491 0 -27 20 -57 107 -165 257 -319 364 -448 385 -462 27 -19 97
-20 118 -3 22 17 447 542 471 581 10 17 19 41 19 53 0 17 -265 854 -296 937
-2 6 17 20 43 30 160 66 360 267 419 422 l17 44 121 0 c140 0 202 -12 190 -38
-23 -54 -17 -75 71 -215 48 -76 85 -144 82 -151 -3 -7 -36 -20 -74 -29 -37 -8
-103 -23 -145 -32 -91 -20 -123 -42 -138 -93 -13 -48 -13 -366 0 -414 16 -57
44 -71 196 -103 143 -29 174 -39 174 -55 0 -6 -36 -68 -80 -138 -69 -111 -80
-135 -80 -173 0 -45 1 -46 160 -203 l160 -158 0 -199 0 -199 -1375 0 -1375 0
0 879 c0 552 4 898 10 932 24 128 117 260 226 324 85 50 146 64 284 64 l125 1
18 -45z m1181 -7 c-71 -114 -180 -205 -289 -243 -63 -23 -223 -31 -296 -16
-136 29 -258 123 -354 274 l-17 27 491 0 491 0 -26 -42z m-415 -520 c5 -18 69
-217 141 -441 86 -267 128 -413 122 -420 -84 -108 -307 -372 -313 -372 -7 0
-295 345 -314 376 -4 5 46 170 109 366 63 197 127 395 141 441 l26 82 39 0
c35 0 39 -3 49 -32z"/>
<path d="M3661 2284 c-313 -67 -509 -372 -433 -672 64 -252 283 -424 541 -426
162 -1 299 54 410 163 110 110 165 239 165 391 0 151 -55 280 -165 391 -135
136 -331 194 -518 153z m269 -235 c159 -75 240 -263 180 -421 -28 -76 -104
-159 -178 -195 -50 -25 -68 -28 -152 -28 -82 0 -103 4 -152 27 -120 56 -190
160 -196 290 -8 162 77 285 236 345 61 22 196 13 262 -18z"/>
</g>
</svg>
