<?xml version="1.0" standalone="no"?>
<!DOCTYPE svg PUBLIC "-//W3C//DTD SVG 20010904//EN"
 "http://www.w3.org/TR/2001/REC-SVG-20010904/DTD/svg10.dtd">
<svg version="1.0" xmlns="http://www.w3.org/2000/svg"
 width="512.000000pt" height="512.000000pt" viewBox="0 0 512.000000 512.000000"
 preserveAspectRatio="xMidYMid meet">

<g transform="translate(0.000000,512.000000) scale(0.100000,-0.100000)"
fill="#000000" stroke="none">
<path d="M1922 4805 c-199 -75 -229 -91 -260 -137 -36 -56 -38 -123 -9 -343
l24 -179 -76 -73 c-42 -40 -83 -72 -91 -73 -8 0 -93 14 -188 30 -251 43 -290
40 -355 -27 -30 -32 -161 -318 -172 -374 -9 -47 9 -110 41 -149 36 -42 242
-199 272 -207 35 -8 87 20 102 56 21 51 1 78 -125 176 -63 48 -115 93 -115
100 0 14 109 266 121 279 4 5 99 -7 218 -28 279 -48 268 -51 418 98 146 145
143 135 108 397 -15 108 -25 205 -23 214 2 12 47 34 143 70 131 50 141 53 156
37 9 -9 61 -80 115 -157 116 -167 129 -182 174 -205 44 -21 285 -35 343 -19
55 15 93 53 223 224 64 85 122 155 128 154 6 0 72 -28 146 -63 120 -55 135
-65 134 -87 0 -13 -16 -112 -34 -220 -34 -192 -34 -196 -17 -240 12 -30 51
-79 121 -151 137 -141 126 -139 404 -103 118 15 215 25 217 23 6 -6 115 -276
115 -286 0 -5 -49 -44 -109 -86 -114 -82 -138 -111 -125 -160 8 -34 49 -66 83
-66 17 0 67 28 135 75 132 91 143 100 167 147 34 67 26 120 -46 300 -68 170
-99 217 -162 244 -44 19 -81 18 -287 -11 -99 -14 -184 -25 -190 -25 -6 0 -44
36 -84 80 l-74 81 35 204 c40 234 38 267 -18 332 -28 33 -62 52 -200 112 -265
116 -278 112 -474 -139 l-130 -167 -110 1 -110 1 -121 172 c-109 156 -125 174
-172 197 -29 14 -68 26 -87 26 -20 0 -101 -25 -179 -55z"/>
<path d="M2375 3924 c-144 -31 -294 -110 -408 -215 -67 -62 -72 -68 -72 -108
0 -35 6 -48 28 -67 49 -42 91 -31 167 43 175 173 445 235 685 159 111 -35 197
-88 285 -176 86 -86 146 -189 179 -310 12 -41 30 -83 41 -94 40 -40 118 -17
141 41 16 42 -40 208 -111 328 -48 83 -180 217 -269 276 -86 56 -198 102 -302
124 -89 19 -272 18 -364 -1z"/>
<path d="M1775 3426 c-29 -29 -65 -140 -72 -222 -5 -57 -4 -62 22 -82 33 -27
85 -28 114 -4 22 18 81 203 81 253 0 67 -96 104 -145 55z"/>
<path d="M1115 3156 c-239 -46 -421 -207 -501 -441 -33 -99 -38 -252 -11 -353
77 -288 330 -482 625 -482 175 0 327 64 452 189 270 271 250 706 -45 951 -56
47 -187 113 -255 128 -80 19 -192 22 -265 8z m228 -181 c173 -45 307 -181 347
-354 38 -164 -32 -359 -168 -466 -191 -150 -464 -130 -628 48 -63 68 -107 152
-102 194 l3 28 115 6 c219 12 389 97 505 251 55 73 58 106 16 149 -44 44 -85
40 -130 -13 -68 -79 -125 -127 -185 -156 -140 -68 -315 -70 -324 -3 -10 64
111 218 214 273 104 56 227 72 337 43z"/>
<path d="M3794 3160 c-137 -21 -259 -84 -360 -184 -126 -127 -188 -274 -188
-451 1 -178 64 -334 184 -454 123 -123 252 -180 428 -188 295 -15 541 155 643
444 29 83 36 246 15 338 -34 143 -123 281 -236 366 -62 47 -173 101 -240 117
-66 15 -188 22 -246 12z m188 -181 c83 -18 158 -58 222 -118 101 -97 146 -200
146 -337 0 -187 -97 -344 -264 -423 -232 -111 -513 -12 -621 220 -44 95 -30
115 79 110 171 -6 341 63 469 189 110 110 130 173 70 220 -50 39 -77 28 -166
-64 -87 -89 -145 -125 -244 -151 -100 -26 -205 -16 -220 20 -3 9 11 49 31 89
92 186 297 287 498 245z"/>
<path d="M2405 2534 c-112 -28 -202 -81 -296 -174 -93 -92 -144 -179 -174
-295 -20 -78 -19 -240 1 -319 52 -204 215 -383 416 -453 97 -35 262 -43 358
-19 219 55 390 211 468 428 23 65 26 87 26 203 0 114 -4 139 -26 203 -37 104
-83 176 -158 252 -76 75 -149 121 -252 157 -92 33 -268 41 -363 17z m268 -179
c232 -60 385 -286 350 -516 -29 -182 -170 -343 -341 -389 -24 -6 -78 -11 -120
-11 -139 1 -248 48 -345 150 -54 56 -107 147 -107 181 0 39 17 45 142 51 147
7 238 35 338 103 106 73 200 182 200 233 0 37 -51 83 -92 83 -30 0 -42 -9 -92
-65 -109 -123 -221 -176 -374 -177 -121 0 -135 21 -85 123 52 104 173 201 293
235 62 17 165 17 233 -1z"/>
<path d="M1670 1893 c-8 -3 -48 -20 -88 -39 -232 -111 -472 -107 -725 11 -71
33 -106 31 -199 -14 -186 -88 -333 -270 -382 -472 -20 -83 -23 -478 -4 -497 9
-9 150 -12 571 -12 l559 0 29 29 c39 40 39 82 0 122 l-29 29 -255 0 c-192 0
-257 3 -265 13 -5 6 -12 62 -14 124 -3 102 -5 114 -27 137 -17 18 -35 26 -57
26 -78 0 -94 -31 -94 -174 0 -94 -2 -106 -19 -116 -28 -14 -204 -13 -219 2
-17 17 -15 219 3 287 23 86 63 158 128 228 61 65 146 123 180 123 10 0 49 -13
86 -29 133 -56 231 -75 386 -74 161 1 276 25 408 86 98 45 127 74 127 125 0
54 -52 98 -100 85z"/>
<path d="M3415 1892 c-65 -13 -88 -100 -40 -148 36 -36 161 -92 274 -121 79
-21 120 -26 236 -26 155 -1 253 18 386 74 37 16 76 29 86 29 34 0 119 -58 180
-123 106 -114 143 -216 143 -398 0 -97 -3 -118 -16 -123 -9 -3 -60 -6 -114 -6
-88 0 -100 2 -110 19 -5 11 -10 69 -10 129 0 100 -2 110 -22 129 -30 27 -63
34 -99 21 -46 -16 -59 -53 -59 -171 0 -67 -4 -107 -12 -115 -9 -9 -82 -12
-266 -12 l-254 0 -29 -29 c-20 -20 -29 -39 -29 -61 0 -22 9 -41 29 -61 l29
-29 560 0 c477 0 561 2 572 15 8 10 11 75 8 247 -4 220 -6 237 -30 304 -35 96
-52 128 -112 208 -60 80 -161 163 -253 207 -94 45 -129 47 -200 14 -253 -118
-492 -122 -725 -12 -87 41 -97 45 -123 39z"/>
<path d="M2003 1246 c-145 -68 -267 -186 -338 -327 -66 -133 -76 -195 -73
-444 l3 -210 965 0 965 0 3 207 c3 250 -7 313 -73 445 -72 143 -193 261 -336
328 -75 35 -125 33 -218 -10 -126 -57 -189 -69 -341 -70 -152 0 -213 12 -341
70 -93 42 -143 45 -216 11z m194 -197 c227 -91 499 -91 726 0 43 17 91 31 107
31 37 0 139 -69 190 -128 89 -102 139 -251 140 -409 0 -106 -8 -113 -134 -113
-124 0 -126 2 -126 142 0 108 0 110 -29 139 -37 36 -79 38 -118 5 -27 -24 -28
-28 -33 -146 -4 -92 -9 -123 -20 -130 -9 -6 -153 -10 -339 -10 -288 0 -326 2
-343 17 -15 14 -18 32 -18 125 0 108 0 110 -29 139 -40 39 -82 39 -122 0 -29
-29 -29 -31 -29 -140 0 -141 0 -141 -126 -141 -124 0 -134 9 -134 118 1 153
52 303 140 404 51 59 153 128 190 128 16 0 64 -14 107 -31z"/>
</g>
</svg>
